<?xml version="1.0" encoding="iso-8859-1"?>
<!-- Generator: Adobe Illustrator 16.0.0, SVG Export Plug-In . SVG Version: 6.00 Build 0)  -->
<!DOCTYPE svg PUBLIC "-//W3C//DTD SVG 1.1//EN" "http://www.w3.org/Graphics/SVG/1.1/DTD/svg11.dtd">
<svg version="1.1" id="Capa_1" xmlns="http://www.w3.org/2000/svg" xmlns:xlink="http://www.w3.org/1999/xlink" x="0px" y="0px"
	 width="79.714px" height="79.714px" viewBox="0 0 79.714 79.714" style="enable-background:new 0 0 79.714 79.714;"
	 xml:space="preserve">
<g>
	<path d="M79.712,30.231v-1.757L43.913,16.169L0,41.672v0.429v0.895v6.487v1.323v0.433l35.799,12.307l43.915-25.5v-1.762
		l-1.199-0.453v-4.905L79.712,30.231z M45.594,17.754L3.854,41.991L2.28,41.45l41.74-24.233L45.594,17.754z M1.941,43.661
		l1.097,0.374v6.492l-1.097-0.379V43.661z M4.305,50.965v-6.489l2.502,0.859L7.584,45.6l28.212,9.695l36.42-21.174l0.704-0.411
		l4.325-2.512v0.465v3.683v0.68v0.953v0.731L35.799,61.786L4.305,50.965z"/>
</g>
<g>
</g>
<g>
</g>
<g>
</g>
<g>
</g>
<g>
</g>
<g>
</g>
<g>
</g>
<g>
</g>
<g>
</g>
<g>
</g>
<g>
</g>
<g>
</g>
<g>
</g>
<g>
</g>
<g>
</g>
</svg>
