<?xml version="1.0" encoding="iso-8859-1"?>
<!-- Generator: Adobe Illustrator 19.0.0, SVG Export Plug-In . SVG Version: 6.00 Build 0)  -->
<svg version="1.1" id="Layer_1" xmlns="http://www.w3.org/2000/svg" xmlns:xlink="http://www.w3.org/1999/xlink" x="0px" y="0px"
	 viewBox="0 0 508.701 508.701" style="enable-background:new 0 0 508.701 508.701;" xml:space="preserve">
<g transform="translate(-1)">
	<g>
		<g>
			<path d="M502.525,257.607c-13.086-16.367-40.335-11.559-54.975-1.805l-75.915,50.619H255.811
				c-1.831-1.909-2.916-4.565-3.037-7.567c-0.174-4.096,1.432-8.027,4.33-10.769l51.07-17.044
				c15.603-6.5,28.863-28.976,22.068-45.95c-2.551-6.404-7.585-11.299-14.518-14.162c-9.459-3.905-21.599-3.619-30.989,0.477
				l-77.147,25.713l-93.67,8.557c-7.012,0-18.128,7.315-21.582,9.719l-60.052,25.444C5.495,293.429-6.203,324.54,5.573,351.459
				l39.563,97.08c0.911,2.239,2.716,3.992,4.981,4.851c0.981,0.365,2.022,0.555,3.055,0.555c1.336,0,2.664-0.312,3.888-0.92
				l102.296-51.148H313.51c0.937,0,1.866-0.156,2.751-0.451l104.136-34.712c0.876-0.286,1.692-0.72,2.439-1.276l69.814-52.033
				c8.886-6.482,15.117-17.26,16.679-28.828C510.691,274.381,508.287,264.801,502.525,257.607z"/>
			<rect x="382.936" y="54.755" width="17.356" height="121.492"/>
			<rect x="122.597" y="54.755" width="17.356" height="121.492"/>
			<path d="M365.58,54.755H157.309v121.492H365.58V54.755z M322.19,124.179H200.699c-4.79,0-8.678-3.888-8.678-8.678
				c0-4.79,3.888-8.678,8.678-8.678H322.19c4.79,0,8.678,3.888,8.678,8.678C330.868,120.291,326.98,124.179,322.19,124.179z"/>
			<path d="M469.716,167.569V63.433c0-4.79-3.888-8.678-8.678-8.678h-43.39v121.492h43.39
				C465.828,176.247,469.716,172.359,469.716,167.569z"/>
			<path d="M61.851,176.247h43.39V54.755h-43.39c-4.79,0-8.678,3.888-8.678,8.678v104.136
				C53.173,172.359,57.061,176.247,61.851,176.247z"/>
		</g>
	</g>
</g>
<g>
</g>
<g>
</g>
<g>
</g>
<g>
</g>
<g>
</g>
<g>
</g>
<g>
</g>
<g>
</g>
<g>
</g>
<g>
</g>
<g>
</g>
<g>
</g>
<g>
</g>
<g>
</g>
<g>
</g>
</svg>
